<svg width="44" height="45" viewBox="0 0 44 45" fill="none" xmlns="http://www.w3.org/2000/svg">
<path d="M19.54 27.17C19.13 27.17 18.79 26.83 18.79 26.42V23.03L18.6 23.25C18.32 23.56 17.85 23.58 17.54 23.31C17.23 23.03 17.21 22.56 17.48 22.25L18.98 20.58C19.19 20.35 19.52 20.27 19.81 20.38C20.1 20.49 20.29 20.77 20.29 21.08V26.43C20.29 26.84 19.96 27.17 19.54 27.17Z" fill="#F1EEE3"/>
<path d="M22 13.98C21.92 13.98 21.84 13.99 21.76 13.99L22.58 12.97C22.84 12.65 22.79 12.17 22.46 11.92C22.14 11.66 21.67 11.71 21.41 12.04L19.44 14.5C19.43 14.51 19.43 14.52 19.42 14.54C19.39 14.58 19.37 14.63 19.35 14.67C19.33 14.72 19.31 14.76 19.3 14.8C19.29 14.85 19.29 14.89 19.29 14.94C19.29 14.99 19.29 15.04 19.29 15.09C19.29 15.11 19.29 15.12 19.29 15.14C19.3 15.17 19.32 15.19 19.33 15.23C19.35 15.28 19.36 15.32 19.39 15.36C19.42 15.4 19.45 15.44 19.49 15.48C19.51 15.5 19.53 15.53 19.55 15.55C19.56 15.56 19.58 15.56 19.59 15.57C19.62 15.59 19.65 15.61 19.69 15.62C19.74 15.65 19.79 15.67 19.84 15.68C19.88 15.7 19.91 15.7 19.95 15.7C19.98 15.7 20 15.71 20.03 15.71C20.05 15.71 20.08 15.7 20.1 15.69C20.13 15.69 20.16 15.69 20.2 15.69C20.84 15.54 21.44 15.47 22.01 15.47C26.5 15.47 30.15 19.12 30.15 23.61C30.15 28.1 26.5 31.75 22.01 31.75C17.52 31.75 13.87 28.1 13.87 23.61C13.87 21.87 14.44 20.19 15.52 18.75C15.77 18.42 15.7 17.95 15.37 17.7C15.04 17.45 14.57 17.52 14.32 17.85C13.04 19.55 12.37 21.54 12.37 23.61C12.37 28.92 16.69 33.25 22.01 33.25C27.33 33.25 31.65 28.93 31.65 23.61C31.65 18.29 27.31 13.98 22 13.98Z" fill="#F1EEE3"/>
<path d="M24 27.17C22.48 27.17 21.25 25.94 21.25 24.42V23.07C21.25 21.55 22.48 20.32 24 20.32C25.52 20.32 26.75 21.55 26.75 23.07V24.42C26.75 25.94 25.52 27.17 24 27.17ZM24 21.83C23.31 21.83 22.75 22.39 22.75 23.08V24.43C22.75 25.12 23.31 25.68 24 25.68C24.69 25.68 25.25 25.12 25.25 24.43V23.08C25.25 22.39 24.69 21.83 24 21.83Z" fill="#F1EEE3"/>
</svg>
