<svg width="44" height="45" viewBox="0 0 44 45" fill="none" xmlns="http://www.w3.org/2000/svg">
<path d="M23.98 14.97L22 12.5" stroke="#F1EEE3" stroke-width="1.5" stroke-linecap="round" stroke-linejoin="round"/>
<path d="M29.09 18.3C30.2 19.78 30.89 21.61 30.89 23.61C30.89 28.52 26.91 32.5 22 32.5C17.09 32.5 13.11 28.52 13.11 23.61C13.11 18.7 17.09 14.72 22 14.72C22.68 14.72 23.34 14.81 23.98 14.96" stroke="#F1EEE3" stroke-width="1.5" stroke-linecap="round" stroke-linejoin="round"/>
<path d="M19.54 26.42V21.08L18.04 22.75" stroke="#F1EEE3" stroke-width="1.5" stroke-linecap="round" stroke-linejoin="round"/>
<path d="M24 21.08C25.1 21.08 26 21.98 26 23.08V24.43C26 25.53 25.1 26.43 24 26.43C22.9 26.43 22 25.53 22 24.43V23.08C22 21.97 22.9 21.08 24 21.08Z" stroke="#F1EEE3" stroke-width="1.5" stroke-linecap="round" stroke-linejoin="round"/>
</svg>
