<svg width="24" height="25" viewBox="0 0 24 25" fill="none" xmlns="http://www.w3.org/2000/svg">
<path d="M22 13.5V17.5C22 21 20 22.5 17 22.5H7C4 22.5 2 21 2 17.5V13.5C2 10.85 3.15 9.35003 5 8.78003C5.6 8.59003 6.27 8.5 7 8.5H17C17.73 8.5 18.4 8.59003 19 8.78003C20.85 9.35003 22 10.85 22 13.5Z" stroke="#A5A296" stroke-width="1.5" stroke-miterlimit="10" stroke-linecap="round" stroke-linejoin="round"/>
<path d="M19 7.5V8.78003C18.4 8.59003 17.73 8.5 17 8.5H7C6.27 8.5 5.6 8.59003 5 8.78003V7.5C5 6.4 5.9 5.5 7 5.5H17C18.1 5.5 19 6.4 19 7.5Z" stroke="#A5A296" stroke-width="1.5" stroke-miterlimit="10" stroke-linecap="round" stroke-linejoin="round"/>
<path d="M16 4.01001V5.5H8V4.01001C8 3.18001 8.68001 2.5 9.51001 2.5H14.49C15.32 2.5 16 3.18001 16 4.01001Z" stroke="#A5A296" stroke-width="1.5" stroke-miterlimit="10" stroke-linecap="round" stroke-linejoin="round"/>
<path d="M9.07001 19.95C9.79902 19.95 10.39 19.359 10.39 18.63C10.39 17.901 9.79902 17.31 9.07001 17.31C8.34099 17.31 7.75 17.901 7.75 18.63C7.75 19.359 8.34099 19.95 9.07001 19.95Z" stroke="#A5A296" stroke-width="1.5" stroke-linecap="round" stroke-linejoin="round"/>
<path d="M15.25 17.75V12.58C15.25 11.48 14.56 11.32 13.86 11.52L11.21 12.24C10.73 12.37 10.4 12.75 10.4 13.3V14.22V14.84V18.63" stroke="#A5A296" stroke-width="1.5" stroke-linecap="round" stroke-linejoin="round"/>
<path d="M13.93 19.07C14.659 19.07 15.25 18.479 15.25 17.75C15.25 17.021 14.659 16.43 13.93 16.43C13.201 16.43 12.61 17.021 12.61 17.75C12.61 18.479 13.201 19.07 13.93 19.07Z" stroke="#A5A296" stroke-width="1.5" stroke-linecap="round" stroke-linejoin="round"/>
<path d="M10.4 14.85L15.25 13.53" stroke="#A5A296" stroke-width="1.5" stroke-linecap="round" stroke-linejoin="round"/>
</svg>
